<mxfile host="65bd71144e">
    <diagram id="6nH-v55iwvwaX3ghe4RU" name="Page-1">
        <mxGraphModel dx="848" dy="528" grid="1" gridSize="10" guides="1" tooltips="1" connect="1" arrows="1" fold="1" page="1" pageScale="1" pageWidth="1100" pageHeight="850" math="0" shadow="0">
            <root>
                <mxCell id="0"/>
                <mxCell id="1" parent="0"/>
                <mxCell id="38" value="&lt;font color=&quot;#ffffff&quot;&gt;Authenticate w/ JWT&lt;/font&gt;" style="shape=umlFrame;whiteSpace=wrap;html=1;width=120;height=30;boundedLbl=1;verticalAlign=middle;align=left;spacingLeft=5;fillColor=#2A2A2A;swimlaneFillColor=#2A2A2A;" parent="1" vertex="1">
                    <mxGeometry x="150" y="50" width="510" height="530" as="geometry"/>
                </mxCell>
                <mxCell id="7" style="edgeStyle=none;html=1;dashed=1;endArrow=none;endFill=0;fontColor=#FFFFFF;strokeColor=#FFFFFF;labelBackgroundColor=none;" parent="1" source="2" edge="1">
                    <mxGeometry relative="1" as="geometry">
                        <mxPoint x="210" y="580" as="targetPoint"/>
                    </mxGeometry>
                </mxCell>
                <mxCell id="2" value="User" style="shape=umlActor;verticalLabelPosition=bottom;verticalAlign=top;html=1;fontColor=#FFFFFF;strokeColor=#FFFFFF;labelBackgroundColor=none;fillColor=none;" parent="1" vertex="1">
                    <mxGeometry x="190" y="100" width="30" height="60" as="geometry"/>
                </mxCell>
                <mxCell id="3" value="Server" style="shape=umlLifeline;perimeter=lifelinePerimeter;whiteSpace=wrap;html=1;container=1;collapsible=0;recursiveResize=0;outlineConnect=0;fontColor=#FFFFFF;strokeColor=#FFFFFF;labelBackgroundColor=none;fillColor=none;" parent="1" vertex="1">
                    <mxGeometry x="440" y="110" width="100" height="470" as="geometry"/>
                </mxCell>
                <mxCell id="4" value="" style="html=1;points=[];perimeter=orthogonalPerimeter;fillColor=#2A2A2A;fontColor=#FFFFFF;strokeColor=#FFFFFF;labelBackgroundColor=none;" parent="3" vertex="1">
                    <mxGeometry x="45" y="110" width="10" height="310" as="geometry"/>
                </mxCell>
                <mxCell id="5" value="UI" style="shape=umlLifeline;perimeter=lifelinePerimeter;whiteSpace=wrap;html=1;container=1;collapsible=0;recursiveResize=0;outlineConnect=0;fontColor=#FFFFFF;strokeColor=#FFFFFF;labelBackgroundColor=none;fillColor=none;" parent="1" vertex="1">
                    <mxGeometry x="300" y="110" width="100" height="470" as="geometry"/>
                </mxCell>
                <mxCell id="25" value="Alternative" style="shape=umlFrame;whiteSpace=wrap;html=1;width=120;height=30;boundedLbl=1;verticalAlign=middle;align=left;spacingLeft=5;fontColor=#FFFFFF;strokeColor=#FFFFFF;labelBackgroundColor=none;fillColor=none;" parent="5" vertex="1">
                    <mxGeometry x="-110" y="255" width="320" height="195" as="geometry"/>
                </mxCell>
                <mxCell id="6" value="" style="html=1;points=[];perimeter=orthogonalPerimeter;fontColor=#FFFFFF;strokeColor=#FFFFFF;labelBackgroundColor=none;fillColor=#2A2A2A;" parent="5" vertex="1">
                    <mxGeometry x="45" y="90" width="10" height="360" as="geometry"/>
                </mxCell>
                <mxCell id="21" style="edgeStyle=none;html=1;endArrow=none;endFill=0;startArrow=blockThin;startFill=1;exitX=0.1;exitY=0.649;exitDx=0;exitDy=0;exitPerimeter=0;fontColor=#FFFFFF;strokeColor=#FFFFFF;labelBackgroundColor=none;" parent="5" edge="1">
                    <mxGeometry relative="1" as="geometry">
                        <mxPoint x="186" y="247.88" as="sourcePoint"/>
                        <mxPoint x="185" y="219" as="targetPoint"/>
                        <Array as="points">
                            <mxPoint x="160" y="248"/>
                            <mxPoint x="160" y="219"/>
                        </Array>
                    </mxGeometry>
                </mxCell>
                <mxCell id="22" value="Process User data" style="edgeLabel;html=1;align=center;verticalAlign=middle;resizable=0;points=[];fontColor=#FFFFFF;labelBackgroundColor=none;" parent="21" vertex="1" connectable="0">
                    <mxGeometry x="0.4196" y="1" relative="1" as="geometry">
                        <mxPoint x="-40" y="15" as="offset"/>
                    </mxGeometry>
                </mxCell>
                <mxCell id="27" value="" style="endArrow=none;dashed=1;html=1;exitX=0.001;exitY=0.508;exitDx=0;exitDy=0;exitPerimeter=0;entryX=1;entryY=0.508;entryDx=0;entryDy=0;entryPerimeter=0;fontColor=#FFFFFF;strokeColor=#FFFFFF;labelBackgroundColor=none;" parent="5" edge="1">
                    <mxGeometry width="50" height="50" relative="1" as="geometry">
                        <mxPoint x="-109.67999999999995" y="358.76" as="sourcePoint"/>
                        <mxPoint x="210" y="358.76" as="targetPoint"/>
                    </mxGeometry>
                </mxCell>
                <mxCell id="29" value="Credentials not correct" style="text;html=1;strokeColor=#FFFFFF;fillColor=none;align=center;verticalAlign=middle;whiteSpace=wrap;rounded=0;fontColor=#FFFFFF;labelBackgroundColor=none;" parent="5" vertex="1">
                    <mxGeometry x="-93" y="371" width="140" height="30" as="geometry"/>
                </mxCell>
                <mxCell id="36" style="edgeStyle=none;html=1;endArrow=blockThin;endFill=1;startArrow=none;startFill=0;exitX=0.1;exitY=0.649;exitDx=0;exitDy=0;exitPerimeter=0;fontColor=#FFFFFF;strokeColor=#FFFFFF;labelBackgroundColor=none;dashed=1;" parent="5" edge="1">
                    <mxGeometry relative="1" as="geometry">
                        <mxPoint x="186" y="314" as="sourcePoint"/>
                        <mxPoint x="55" y="314.12" as="targetPoint"/>
                    </mxGeometry>
                </mxCell>
                <mxCell id="37" value="Send Access &amp;amp;&lt;br&gt;&amp;nbsp;Refresh Token" style="edgeLabel;html=1;align=center;verticalAlign=middle;resizable=0;points=[];fontColor=#FFFFFF;labelBackgroundColor=none;" parent="36" vertex="1" connectable="0">
                    <mxGeometry x="0.4196" y="1" relative="1" as="geometry">
                        <mxPoint x="23" y="-15" as="offset"/>
                    </mxGeometry>
                </mxCell>
                <mxCell id="8" value="" style="endArrow=open;html=1;rounded=0;align=center;verticalAlign=bottom;endFill=0;labelBackgroundColor=none;fontColor=#FFFFFF;strokeColor=#FFFFFF;" parent="1" target="6" edge="1">
                    <mxGeometry relative="1" as="geometry">
                        <mxPoint x="210" y="220" as="sourcePoint"/>
                        <mxPoint x="490" y="260" as="targetPoint"/>
                    </mxGeometry>
                </mxCell>
                <mxCell id="9" value="Write Credentials" style="resizable=0;html=1;align=center;verticalAlign=top;labelBackgroundColor=none;fontColor=#FFFFFF;" parent="8" connectable="0" vertex="1">
                    <mxGeometry relative="1" as="geometry">
                        <mxPoint y="-21" as="offset"/>
                    </mxGeometry>
                </mxCell>
                <mxCell id="11" value="" style="endArrow=open;html=1;rounded=0;align=center;verticalAlign=bottom;endFill=0;labelBackgroundColor=none;exitX=1.1;exitY=0.212;exitDx=0;exitDy=0;exitPerimeter=0;entryX=-0.025;entryY=0.17;entryDx=0;entryDy=0;entryPerimeter=0;fontColor=#FFFFFF;strokeColor=#FFFFFF;" parent="1" source="6" target="4" edge="1">
                    <mxGeometry relative="1" as="geometry">
                        <mxPoint x="350" y="240" as="sourcePoint"/>
                        <mxPoint x="480" y="240" as="targetPoint"/>
                        <Array as="points"/>
                    </mxGeometry>
                </mxCell>
                <mxCell id="12" value="Send Credentials" style="resizable=0;html=1;align=center;verticalAlign=top;labelBackgroundColor=none;fontColor=#FFFFFF;" parent="11" connectable="0" vertex="1">
                    <mxGeometry relative="1" as="geometry">
                        <mxPoint x="-2" y="-22" as="offset"/>
                    </mxGeometry>
                </mxCell>
                <mxCell id="14" style="edgeStyle=none;html=1;dashed=1;endArrow=none;endFill=0;fontColor=#FFFFFF;strokeColor=#FFFFFF;labelBackgroundColor=none;" parent="1" source="13" edge="1">
                    <mxGeometry relative="1" as="geometry">
                        <mxPoint x="610" y="580" as="targetPoint"/>
                    </mxGeometry>
                </mxCell>
                <mxCell id="13" value="Data" style="shape=cylinder3;whiteSpace=wrap;html=1;boundedLbl=1;backgroundOutline=1;size=15;fontColor=#FFFFFF;strokeColor=#FFFFFF;labelBackgroundColor=none;fillColor=none;" parent="1" vertex="1">
                    <mxGeometry x="590" y="100" width="40" height="60" as="geometry"/>
                </mxCell>
                <mxCell id="19" style="edgeStyle=none;html=1;endArrow=blockThin;endFill=1;startArrow=none;startFill=0;fontColor=#FFFFFF;strokeColor=#FFFFFF;labelBackgroundColor=none;dashed=1;" parent="1" edge="1">
                    <mxGeometry relative="1" as="geometry">
                        <mxPoint x="605" y="317.99999999999994" as="sourcePoint"/>
                        <mxPoint x="495" y="317.99999999999994" as="targetPoint"/>
                    </mxGeometry>
                </mxCell>
                <mxCell id="20" value="Return User Data" style="edgeLabel;html=1;align=center;verticalAlign=middle;resizable=0;points=[];fontColor=#FFFFFF;labelBackgroundColor=none;" parent="19" vertex="1" connectable="0">
                    <mxGeometry x="0.4196" y="1" relative="1" as="geometry">
                        <mxPoint x="23" y="-9" as="offset"/>
                    </mxGeometry>
                </mxCell>
                <mxCell id="15" value="" style="html=1;points=[];perimeter=orthogonalPerimeter;fillColor=#2A2A2A;fontColor=#FFFFFF;strokeColor=#FFFFFF;labelBackgroundColor=none;" parent="1" vertex="1">
                    <mxGeometry x="605" y="260" width="10" height="90" as="geometry"/>
                </mxCell>
                <mxCell id="17" value="" style="endArrow=open;html=1;rounded=0;align=center;verticalAlign=bottom;endFill=0;labelBackgroundColor=none;exitX=1.287;exitY=0.326;exitDx=0;exitDy=0;exitPerimeter=0;entryX=-0.088;entryY=0.326;entryDx=0;entryDy=0;entryPerimeter=0;fontColor=#FFFFFF;strokeColor=#FFFFFF;" parent="1" edge="1">
                    <mxGeometry relative="1" as="geometry">
                        <mxPoint x="497.87" y="288.05999999999995" as="sourcePoint"/>
                        <mxPoint x="604.12" y="288.05999999999995" as="targetPoint"/>
                        <Array as="points"/>
                    </mxGeometry>
                </mxCell>
                <mxCell id="18" value="Get user Data" style="resizable=0;html=1;align=center;verticalAlign=top;labelBackgroundColor=none;fontColor=#FFFFFF;" parent="17" connectable="0" vertex="1">
                    <mxGeometry relative="1" as="geometry">
                        <mxPoint x="-2" y="-22" as="offset"/>
                    </mxGeometry>
                </mxCell>
                <mxCell id="23" style="edgeStyle=none;html=1;endArrow=blockThin;endFill=1;startArrow=none;startFill=0;fontColor=#FFFFFF;strokeColor=#FFFFFF;labelBackgroundColor=none;dashed=1;" parent="1" edge="1">
                    <mxGeometry relative="1" as="geometry">
                        <mxPoint x="345" y="454" as="sourcePoint"/>
                        <mxPoint x="210" y="454" as="targetPoint"/>
                    </mxGeometry>
                </mxCell>
                <mxCell id="24" value="Redirect to Homepage" style="edgeLabel;html=1;align=center;verticalAlign=middle;resizable=0;points=[];fontColor=#FFFFFF;labelBackgroundColor=none;" parent="23" vertex="1" connectable="0">
                    <mxGeometry x="0.4196" y="1" relative="1" as="geometry">
                        <mxPoint x="23" y="-9" as="offset"/>
                    </mxGeometry>
                </mxCell>
                <mxCell id="28" value="Credentials correct" style="text;html=1;strokeColor=#FFFFFF;fillColor=none;align=center;verticalAlign=middle;whiteSpace=wrap;rounded=0;fontColor=#FFFFFF;labelBackgroundColor=none;" parent="1" vertex="1">
                    <mxGeometry x="208" y="399" width="132" height="30" as="geometry"/>
                </mxCell>
                <mxCell id="31" style="edgeStyle=none;html=1;endArrow=blockThin;endFill=1;startArrow=none;startFill=0;fontColor=#FFFFFF;strokeColor=#FFFFFF;labelBackgroundColor=none;dashed=1;" parent="1" edge="1">
                    <mxGeometry relative="1" as="geometry">
                        <mxPoint x="345" y="537" as="sourcePoint"/>
                        <mxPoint x="210" y="537" as="targetPoint"/>
                    </mxGeometry>
                </mxCell>
                <mxCell id="32" value="Show Error" style="edgeLabel;html=1;align=center;verticalAlign=middle;resizable=0;points=[];fontColor=#FFFFFF;labelBackgroundColor=none;" parent="31" vertex="1" connectable="0">
                    <mxGeometry x="0.4196" y="1" relative="1" as="geometry">
                        <mxPoint x="23" y="-9" as="offset"/>
                    </mxGeometry>
                </mxCell>
                <mxCell id="34" style="edgeStyle=none;html=1;endArrow=blockThin;endFill=1;startArrow=none;startFill=0;exitX=0.1;exitY=0.649;exitDx=0;exitDy=0;exitPerimeter=0;fontColor=#FFFFFF;strokeColor=#FFFFFF;labelBackgroundColor=none;dashed=1;" parent="1" edge="1">
                    <mxGeometry relative="1" as="geometry">
                        <mxPoint x="486" y="516.88" as="sourcePoint"/>
                        <mxPoint x="355" y="517" as="targetPoint"/>
                    </mxGeometry>
                </mxCell>
                <mxCell id="35" value="Send Response" style="edgeLabel;html=1;align=center;verticalAlign=middle;resizable=0;points=[];fontColor=#FFFFFF;labelBackgroundColor=none;" parent="34" vertex="1" connectable="0">
                    <mxGeometry x="0.4196" y="1" relative="1" as="geometry">
                        <mxPoint x="23" y="-9" as="offset"/>
                    </mxGeometry>
                </mxCell>
            </root>
        </mxGraphModel>
    </diagram>
</mxfile>